STARTFONT 2.1
FONT -ibm-courier-bold-r-normal--24-240-75-75-m-117-iso8859-2
SIZE 24 75 75
FONTBOUNDINGBOX 19 26 -1 -4
COMMENT $Header: courB24.bdf,v 1.1 96/01/22 23:45:32 peterlin Exp $
COMMENT 
COMMENT Copyright International Business Machines,Corp. 1991
COMMENT IBM Courier is a Trademark of the IBM Corporation.
COMMENT 
COMMENT Automatic rendering from Adobe Type 1 outline:
COMMENT Primoz Peterlin <primoz.peterlin@biofiz.mf.uni-lj.si>
COMMENT courb.pfa rendered at 24.000000 points
COMMENT Checksum eb69a063
STARTPROPERTIES 3
FONT_ASCENT 21
FONT_DESCENT 4
DEFAULT_CHAR 32
ENDPROPERTIES
CHARS 191
STARTCHAR space
ENCODING 32
SWIDTH 596 0
DWIDTH 15 0
BBX 0 0 0 1
BITMAP
ENDCHAR
STARTCHAR exclam
ENCODING 33
SWIDTH 596 0
DWIDTH 15 0
BBX 4 15 5 1
BITMAP
70
70
70
70
70
70
70
70
70
70
00
e0
f0
f0
60
ENDCHAR
STARTCHAR quotedbl
ENCODING 34
SWIDTH 596 0
DWIDTH 15 0
BBX 7 8 4 8
BITMAP
ee
ee
ee
ee
ee
ee
ee
ee
ENDCHAR
STARTCHAR numbersign
ENCODING 35
SWIDTH 596 0
DWIDTH 15 0
BBX 13 18 1 -1
BITMAP
1860
1860
1860
1860
1860
fff8
fff8
1860
1860
1860
1860
fff8
fff8
38e0
30c0
30c0
30c0
30c0
ENDCHAR
STARTCHAR dollar
ENCODING 36
SWIDTH 596 0
DWIDTH 15 0
BBX 10 20 2 -2
BITMAP
0c00
0c00
0c00
3fc0
3fc0
7dc0
6cc0
6cc0
6cc0
3f00
0f80
edc0
6cc0
6cc0
7fc0
7f80
7e00
0c00
0c00
0c00
ENDCHAR
STARTCHAR percent
ENCODING 37
SWIDTH 596 0
DWIDTH 15 0
BBX 15 16 0 1
BITMAP
3c00
7e00
e300
c300
c300
6708
7e7c
3df8
0fc0
3e78
30fc
018e
0186
018e
00fc
0078
ENDCHAR
STARTCHAR ampersand
ENCODING 38
SWIDTH 596 0
DWIDTH 15 0
BBX 12 14 2 1
BITMAP
1e00
3f80
3100
3000
3800
1c00
3ce0
7ee0
e780
c700
c380
63c0
7ff0
3cf0
ENDCHAR
STARTCHAR quoteright
ENCODING 39
SWIDTH 596 0
DWIDTH 15 0
BBX 6 7 4 9
BITMAP
3c
38
78
70
70
e0
e0
ENDCHAR
STARTCHAR parenleft
ENCODING 40
SWIDTH 596 0
DWIDTH 15 0
BBX 5 19 7 -1
BITMAP
18
30
30
60
60
60
c0
c0
c0
c0
c0
c0
c0
60
60
60
30
30
18
ENDCHAR
STARTCHAR parenright
ENCODING 41
SWIDTH 596 0
DWIDTH 15 0
BBX 5 19 3 -1
BITMAP
c0
60
60
30
30
38
18
18
18
18
18
18
18
30
30
30
60
60
c0
ENDCHAR
STARTCHAR asterisk
ENCODING 42
SWIDTH 596 0
DWIDTH 15 0
BBX 10 10 2 6
BITMAP
0e00
0c00
4c40
ffc0
ffc0
1f00
1f00
3f80
7380
1100
ENDCHAR
STARTCHAR plus
ENCODING 43
SWIDTH 596 0
DWIDTH 15 0
BBX 13 12 1 3
BITMAP
0600
0600
0600
0600
0600
fff8
fff8
0600
0600
0600
0600
0600
ENDCHAR
STARTCHAR comma
ENCODING 44
SWIDTH 596 0
DWIDTH 15 0
BBX 6 7 4 -2
BITMAP
3c
38
78
70
70
e0
e0
ENDCHAR
STARTCHAR minus
ENCODING 45
SWIDTH 596 0
DWIDTH 15 0
BBX 12 2 1 8
BITMAP
fff0
fff0
ENDCHAR
STARTCHAR period
ENCODING 46
SWIDTH 596 0
DWIDTH 15 0
BBX 5 4 5 1
BITMAP
70
f8
f8
70
ENDCHAR
STARTCHAR slash
ENCODING 47
SWIDTH 596 0
DWIDTH 15 0
BBX 11 21 2 -2
BITMAP
0060
00e0
00c0
00c0
0180
0180
0300
0300
0600
0600
0e00
0c00
0c00
1800
1800
3000
3000
6000
6000
e000
c000
ENDCHAR
STARTCHAR zero
ENCODING 48
SWIDTH 596 0
DWIDTH 15 0
BBX 9 16 3 1
BITMAP
1c00
7f00
6300
e380
c180
c180
c180
c180
c180
c180
c180
c180
e380
6300
7f00
3e00
ENDCHAR
STARTCHAR one
ENCODING 49
SWIDTH 596 0
DWIDTH 15 0
BBX 11 16 2 1
BITMAP
0600
3e00
fe00
6600
0600
0600
0600
0600
0600
0600
0600
0600
0600
0600
ffe0
ffe0
ENDCHAR
STARTCHAR two
ENCODING 50
SWIDTH 596 0
DWIDTH 15 0
BBX 10 16 2 1
BITMAP
1e00
7f80
e180
c0c0
c0c0
00c0
00c0
0180
0380
0700
0e00
1cc0
78c0
f0c0
ffc0
ffc0
ENDCHAR
STARTCHAR three
ENCODING 51
SWIDTH 596 0
DWIDTH 15 0
BBX 10 16 2 1
BITMAP
3e00
7f00
e380
4180
0180
0180
0380
1f00
1f80
01c0
00c0
00c0
00c0
c1c0
ff80
3e00
ENDCHAR
STARTCHAR four
ENCODING 52
SWIDTH 596 0
DWIDTH 15 0
BBX 12 16 1 1
BITMAP
0380
0780
0780
0d80
1980
1980
3180
3180
6180
e180
fff0
fff0
0180
0180
0ff0
0ff0
ENDCHAR
STARTCHAR five
ENCODING 53
SWIDTH 596 0
DWIDTH 15 0
BBX 10 16 2 1
BITMAP
7f80
7f80
6000
6000
6000
6000
7f00
7f80
61c0
00c0
00c0
00c0
00c0
c1c0
ff80
3f00
ENDCHAR
STARTCHAR six
ENCODING 54
SWIDTH 596 0
DWIDTH 15 0
BBX 11 16 2 1
BITMAP
07e0
1fe0
3c00
3000
7000
6000
ff00
ff80
f180
e0c0
c0c0
c0c0
60c0
71c0
3f80
1f00
ENDCHAR
STARTCHAR seven
ENCODING 55
SWIDTH 596 0
DWIDTH 15 0
BBX 11 16 2 1
BITMAP
ffe0
ffe0
c0c0
c0c0
c1c0
0180
0180
0380
0300
0300
0700
0600
0600
0e00
0c00
1c00
ENDCHAR
STARTCHAR eight
ENCODING 56
SWIDTH 596 0
DWIDTH 15 0
BBX 11 16 2 1
BITMAP
1f00
3f80
71c0
60c0
60c0
60c0
31c0
3f80
3fc0
71c0
e0e0
c060
c060
60c0
7fc0
1f00
ENDCHAR
STARTCHAR nine
ENCODING 57
SWIDTH 596 0
DWIDTH 15 0
BBX 10 16 2 1
BITMAP
1e00
7f00
6380
c180
c0c0
c0c0
c0c0
63c0
7fc0
1fc0
0180
0180
0380
0f00
fe00
f800
ENDCHAR
STARTCHAR colon
ENCODING 58
SWIDTH 596 0
DWIDTH 15 0
BBX 5 10 5 1
BITMAP
70
f8
f8
70
00
00
70
f8
f8
70
ENDCHAR
STARTCHAR semicolon
ENCODING 59
SWIDTH 596 0
DWIDTH 15 0
BBX 6 13 4 -2
BITMAP
38
7c
7c
38
00
00
3c
38
78
70
70
e0
e0
ENDCHAR
STARTCHAR less
ENCODING 60
SWIDTH 596 0
DWIDTH 15 0
BBX 14 12 0 3
BITMAP
0008
003c
00f8
07e0
1f00
7c00
7c00
1f80
07e0
00f8
003c
0008
ENDCHAR
STARTCHAR equal
ENCODING 61
SWIDTH 596 0
DWIDTH 15 0
BBX 12 6 1 6
BITMAP
fff0
fff0
0000
0000
fff0
fff0
ENDCHAR
STARTCHAR greater
ENCODING 62
SWIDTH 596 0
DWIDTH 15 0
BBX 14 12 1 3
BITMAP
4000
f000
fc00
7f00
0fe0
01f8
00f8
03e0
1f80
7e00
f000
4000
ENDCHAR
STARTCHAR question
ENCODING 63
SWIDTH 596 0
DWIDTH 15 0
BBX 9 15 3 1
BITMAP
7e00
ff00
e380
c180
c180
0180
0380
0f00
1800
1800
0000
1c00
3c00
3c00
1800
ENDCHAR
STARTCHAR at
ENCODING 64
SWIDTH 596 0
DWIDTH 15 0
BBX 15 15 0 1
BITMAP
07e0
1ff0
3838
700c
63e6
c7e6
c6e6
ccc6
cdce
cffc
ef78
6200
781c
1ffc
0fe0
ENDCHAR
STARTCHAR A
ENCODING 65
SWIDTH 596 0
DWIDTH 15 0
BBX 15 15 0 1
BITMAP
1f80
1f80
03c0
07c0
06c0
0ee0
0c60
0c60
1ff0
1ff0
3838
3018
3018
fc7e
fc7e
ENDCHAR
STARTCHAR B
ENCODING 66
SWIDTH 596 0
DWIDTH 15 0
BBX 13 15 1 1
BITMAP
ffc0
ffe0
3070
3030
3030
3030
3fe0
3ff0
3070
3018
3018
3018
3038
fff0
ffc0
ENDCHAR
STARTCHAR C
ENCODING 67
SWIDTH 596 0
DWIDTH 15 0
BBX 14 15 1 1
BITMAP
0f98
1ff8
3878
7038
6018
c018
c000
c000
c000
c000
6000
700c
383c
1ff0
0fc0
ENDCHAR
STARTCHAR D
ENCODING 68
SWIDTH 596 0
DWIDTH 15 0
BBX 13 15 1 1
BITMAP
ff80
ffe0
30f0
3070
3038
3018
3018
3018
3018
3018
3038
3030
30f0
ffe0
ff80
ENDCHAR
STARTCHAR E
ENCODING 69
SWIDTH 596 0
DWIDTH 15 0
BBX 13 15 1 1
BITMAP
fff8
fff8
3038
3018
3198
3198
3f80
3f80
3180
3198
3018
3018
3018
fff8
fff8
ENDCHAR
STARTCHAR F
ENCODING 70
SWIDTH 596 0
DWIDTH 15 0
BBX 12 15 2 1
BITMAP
fff0
fff0
3030
3030
31b0
31b0
3f80
3f80
3180
3180
3000
3000
3000
fe00
fe00
ENDCHAR
STARTCHAR G
ENCODING 71
SWIDTH 596 0
DWIDTH 15 0
BBX 14 15 1 1
BITMAP
0fb0
1ff0
3870
7070
6030
c030
c000
c000
c1fc
c1fc
e030
6030
7830
3ff0
0fc0
ENDCHAR
STARTCHAR H
ENCODING 72
SWIDTH 596 0
DWIDTH 15 0
BBX 13 15 1 1
BITMAP
f8f8
f8f8
3060
3060
3060
3060
3fe0
3fe0
3060
3060
3060
3060
3060
f8f8
f8f8
ENDCHAR
STARTCHAR I
ENCODING 73
SWIDTH 596 0
DWIDTH 15 0
BBX 11 15 2 1
BITMAP
ffe0
ffe0
0600
0600
0600
0600
0600
0600
0600
0600
0600
0600
0600
ffe0
ffe0
ENDCHAR
STARTCHAR J
ENCODING 74
SWIDTH 596 0
DWIDTH 15 0
BBX 14 15 1 1
BITMAP
0ffc
0ffc
0060
0060
0060
0060
0060
0060
c060
c060
c060
e060
e0e0
ffc0
1f00
ENDCHAR
STARTCHAR K
ENCODING 75
SWIDTH 596 0
DWIDTH 15 0
BBX 14 15 1 1
BITMAP
fdf8
fdf8
30e0
31c0
3380
3780
3700
3f00
3f80
31c0
30c0
30e0
30e0
fc7c
fc7c
ENDCHAR
STARTCHAR L
ENCODING 76
SWIDTH 596 0
DWIDTH 15 0
BBX 13 15 1 1
BITMAP
ff00
ff00
1800
1800
1800
1800
1800
1800
1818
1818
1818
1818
1818
fff8
fff8
ENDCHAR
STARTCHAR M
ENCODING 77
SWIDTH 596 0
DWIDTH 15 0
BBX 15 15 0 1
BITMAP
f83e
f83e
3c78
3c78
3c78
3658
36d8
36d8
3398
3398
3398
3018
3018
fc7e
fc7e
ENDCHAR
STARTCHAR N
ENCODING 78
SWIDTH 596 0
DWIDTH 15 0
BBX 15 15 0 1
BITMAP
f87e
fc7e
3c18
3e18
3618
3718
3318
3398
3198
31d8
30d8
3078
3078
fe38
fe38
ENDCHAR
STARTCHAR O
ENCODING 79
SWIDTH 596 0
DWIDTH 15 0
BBX 13 15 1 1
BITMAP
0f80
3fe0
38e0
6030
6030
c018
c018
c018
c018
c018
e038
6030
7870
3fe0
0f80
ENDCHAR
STARTCHAR P
ENCODING 80
SWIDTH 596 0
DWIDTH 15 0
BBX 12 15 2 1
BITMAP
ff80
ffe0
30e0
3070
3030
3030
3070
30e0
3fe0
3f80
3000
3000
3000
ff00
ff00
ENDCHAR
STARTCHAR Q
ENCODING 81
SWIDTH 596 0
DWIDTH 15 0
BBX 13 18 1 -2
BITMAP
0f80
3fe0
38e0
6030
e038
c018
c018
c018
c018
c018
e018
6030
7070
3fe0
1f80
1f90
3ff8
10f0
ENDCHAR
STARTCHAR R
ENCODING 82
SWIDTH 596 0
DWIDTH 15 0
BBX 14 15 1 1
BITMAP
ffc0
ffe0
3070
3030
3030
3030
30e0
3fe0
3f80
3180
31c0
30e0
3060
fc3c
fc3c
ENDCHAR
STARTCHAR S
ENCODING 83
SWIDTH 596 0
DWIDTH 15 0
BBX 11 15 2 1
BITMAP
1e60
3fe0
71e0
c0e0
c060
c060
7000
7f80
0fc0
00e0
c060
c060
f0e0
ffc0
cf00
ENDCHAR
STARTCHAR T
ENCODING 84
SWIDTH 596 0
DWIDTH 15 0
BBX 14 15 1 1
BITMAP
7ff8
7ff8
6318
6318
6318
e31c
e31c
0300
0300
0300
0300
0300
0300
1fe0
1fe0
ENDCHAR
STARTCHAR U
ENCODING 85
SWIDTH 596 0
DWIDTH 15 0
BBX 15 15 0 1
BITMAP
fefe
fefe
3018
3018
3018
3018
3018
3018
3018
3018
3018
3018
1830
1ff0
07c0
ENDCHAR
STARTCHAR V
ENCODING 86
SWIDTH 596 0
DWIDTH 15 0
BBX 15 15 0 1
BITMAP
fc7e
fc7e
3018
3018
1830
1830
1c30
0c60
0c60
0ee0
06c0
06c0
03c0
0380
0380
ENDCHAR
STARTCHAR W
ENCODING 87
SWIDTH 596 0
DWIDTH 15 0
BBX 15 15 0 1
BITMAP
fc7e
fc7e
701c
701c
711c
3398
3398
37d8
36d8
3ed8
3cf8
3c78
3c78
1870
1830
ENDCHAR
STARTCHAR X
ENCODING 88
SWIDTH 596 0
DWIDTH 15 0
BBX 14 15 1 1
BITMAP
fcf8
fcf8
3860
18e0
1dc0
0d80
0780
0700
0f80
0dc0
1ce0
3860
3070
fcfc
fcfc
ENDCHAR
STARTCHAR Y
ENCODING 89
SWIDTH 596 0
DWIDTH 15 0
BBX 15 15 0 1
BITMAP
fc7e
fc7e
3838
1c30
0c70
0e60
07e0
03c0
03c0
0180
0180
0180
0180
0fe0
0fe0
ENDCHAR
STARTCHAR Z
ENCODING 90
SWIDTH 596 0
DWIDTH 15 0
BBX 11 15 2 1
BITMAP
ffc0
ffc0
c1c0
c180
c300
c700
0600
0c00
1c00
3860
3060
7060
e060
ffe0
ffe0
ENDCHAR
STARTCHAR bracketleft
ENCODING 91
SWIDTH 596 0
DWIDTH 15 0
BBX 5 19 7 -1
BITMAP
f8
f8
c0
c0
c0
c0
c0
c0
c0
c0
c0
c0
c0
c0
c0
c0
c0
f8
f8
ENDCHAR
STARTCHAR backslash
ENCODING 92
SWIDTH 596 0
DWIDTH 15 0
BBX 11 22 2 -3
BITMAP
4000
e000
6000
6000
3000
3000
1800
1800
1c00
0c00
0c00
0600
0600
0300
0300
0180
0180
0180
00c0
00c0
0060
0040
ENDCHAR
STARTCHAR bracketright
ENCODING 93
SWIDTH 596 0
DWIDTH 15 0
BBX 5 19 3 -1
BITMAP
f8
f8
18
18
18
18
18
18
18
18
18
18
18
18
18
18
18
f8
f8
ENDCHAR
STARTCHAR asciicircum
ENCODING 94
SWIDTH 596 0
DWIDTH 15 0
BBX 12 11 1 5
BITMAP
0f00
0f00
1f80
1980
3980
39c0
30c0
70e0
70e0
6060
e070
ENDCHAR
STARTCHAR underscore
ENCODING 95
SWIDTH 596 0
DWIDTH 15 0
BBX 17 2 -1 -2
BITMAP
ffff80
ffff80
ENDCHAR
STARTCHAR quoteleft
ENCODING 96
SWIDTH 596 0
DWIDTH 15 0
BBX 6 7 4 9
BITMAP
1c
1c
38
38
78
70
f0
ENDCHAR
STARTCHAR a
ENCODING 97
SWIDTH 596 0
DWIDTH 15 0
BBX 13 11 1 1
BITMAP
1fc0
7fe0
0060
1fe0
7fe0
70e0
c060
c0e0
e1e0
7ff8
3e78
ENDCHAR
STARTCHAR b
ENCODING 98
SWIDTH 596 0
DWIDTH 15 0
BBX 14 16 0 1
BITMAP
f000
f000
3000
3000
3000
33c0
3ff0
3c38
381c
300c
300c
300c
381c
3c38
fff0
f7c0
ENDCHAR
STARTCHAR c
ENCODING 99
SWIDTH 596 0
DWIDTH 15 0
BBX 12 11 2 1
BITMAP
1f60
7fe0
70e0
e060
c040
c000
c000
e020
70f0
3fe0
1f80
ENDCHAR
STARTCHAR d
ENCODING 100
SWIDTH 596 0
DWIDTH 15 0
BBX 14 16 1 1
BITMAP
03f0
03f0
0030
0030
0030
1fb0
3ff0
70f0
e070
c070
c030
c070
e070
70f0
3ffc
1f3c
ENDCHAR
STARTCHAR e
ENCODING 101
SWIDTH 596 0
DWIDTH 15 0
BBX 12 11 2 1
BITMAP
1f80
7fe0
6060
c030
fff0
fff0
c000
e010
7070
3fe0
1f80
ENDCHAR
STARTCHAR f
ENCODING 102
SWIDTH 596 0
DWIDTH 15 0
BBX 11 16 2 1
BITMAP
0fc0
1fe0
1820
1800
1800
ffc0
ffc0
1800
1800
1800
1800
1800
1800
1800
ffc0
ffc0
ENDCHAR
STARTCHAR g
ENCODING 103
SWIDTH 596 0
DWIDTH 15 0
BBX 13 15 1 -3
BITMAP
1f78
3ff8
71e0
e0e0
c060
c060
c060
e0e0
71e0
3fe0
1f60
0060
01e0
1fc0
1f80
ENDCHAR
STARTCHAR h
ENCODING 104
SWIDTH 596 0
DWIDTH 15 0
BBX 15 16 0 1
BITMAP
f800
f800
1800
1800
1800
19e0
1ff0
1c38
1818
1818
1818
1818
1818
1818
7efe
7efe
ENDCHAR
STARTCHAR i
ENCODING 105
SWIDTH 596 0
DWIDTH 15 0
BBX 11 17 2 1
BITMAP
0e00
0e00
0e00
0000
0000
0000
7e00
7e00
0600
0600
0600
0600
0600
0600
0600
ffe0
ffe0
ENDCHAR
STARTCHAR j
ENCODING 106
SWIDTH 596 0
DWIDTH 15 0
BBX 9 21 1 -3
BITMAP
0380
0380
0380
0000
0000
0000
7f80
7f80
0180
0180
0180
0180
0180
0180
0180
0180
0180
0180
4380
7f00
fe00
ENDCHAR
STARTCHAR k
ENCODING 107
SWIDTH 596 0
DWIDTH 15 0
BBX 13 16 1 1
BITMAP
f000
f000
3000
3000
3000
33f0
33f0
33c0
3700
3e00
3f00
3380
3180
30c0
f1f8
f1f8
ENDCHAR
STARTCHAR l
ENCODING 108
SWIDTH 596 0
DWIDTH 15 0
BBX 11 16 2 1
BITMAP
1c00
fc00
0c00
0c00
0c00
0c00
0c00
0c00
0c00
0c00
0c00
0c00
0c00
0c00
ffe0
ffe0
ENDCHAR
STARTCHAR m
ENCODING 109
SWIDTH 596 0
DWIDTH 15 0
BBX 15 11 0 1
BITMAP
f778
fffc
318c
318c
318c
318c
318c
318c
318c
fdee
fdee
ENDCHAR
STARTCHAR n
ENCODING 110
SWIDTH 596 0
DWIDTH 15 0
BBX 14 11 1 1
BITMAP
f780
ffc0
3860
3060
3060
3060
3060
3060
3060
fdfc
fdfc
ENDCHAR
STARTCHAR o
ENCODING 111
SWIDTH 596 0
DWIDTH 15 0
BBX 13 11 1 1
BITMAP
1fc0
3fe0
7070
e038
c018
c018
c018
e038
7070
3fe0
0f80
ENDCHAR
STARTCHAR p
ENCODING 112
SWIDTH 596 0
DWIDTH 15 0
BBX 14 15 0 -3
BITMAP
f7e0
fff0
3c38
381c
300c
300c
300c
381c
3c38
3ff0
37c0
3000
3000
ff00
ff00
ENDCHAR
STARTCHAR q
ENCODING 113
SWIDTH 596 0
DWIDTH 15 0
BBX 14 15 1 -3
BITMAP
1fbc
3ffc
70f0
e070
c030
c030
c030
e070
70f0
3ff0
0f30
0030
0030
03fc
03fc
ENDCHAR
STARTCHAR r
ENCODING 114
SWIDTH 596 0
DWIDTH 15 0
BBX 13 11 2 1
BITMAP
f9e0
fff0
1e20
1c00
1800
1800
1800
1800
1800
ff80
ff80
ENDCHAR
STARTCHAR s
ENCODING 115
SWIDTH 596 0
DWIDTH 15 0
BBX 11 11 2 1
BITMAP
3ec0
ffc0
c0c0
c0c0
7f00
3fc0
01e0
c060
e0e0
ffc0
cf80
ENDCHAR
STARTCHAR t
ENCODING 116
SWIDTH 596 0
DWIDTH 15 0
BBX 12 15 2 1
BITMAP
3000
3000
3000
3000
ffc0
ffc0
3000
3000
3000
3000
3000
3000
3860
1ff0
0f80
ENDCHAR
STARTCHAR u
ENCODING 117
SWIDTH 596 0
DWIDTH 15 0
BBX 13 11 1 1
BITMAP
f1e0
f1e0
3060
3060
3060
3060
3060
3060
30e0
1ff8
0f78
ENDCHAR
STARTCHAR v
ENCODING 118
SWIDTH 596 0
DWIDTH 15 0
BBX 15 11 0 1
BITMAP
fc7e
fc7e
3838
1830
1c70
0c60
0ee0
06c0
07c0
0380
0380
ENDCHAR
STARTCHAR w
ENCODING 119
SWIDTH 596 0
DWIDTH 15 0
BBX 15 11 0 1
BITMAP
f83e
f83e
618c
339c
3398
37d8
36d8
1ef0
1c70
1c70
0c70
ENDCHAR
STARTCHAR x
ENCODING 120
SWIDTH 596 0
DWIDTH 15 0
BBX 15 11 0 1
BITMAP
7efc
7efc
1c70
0ee0
0380
03c0
07e0
1c70
3838
fc7e
fc7e
ENDCHAR
STARTCHAR y
ENCODING 121
SWIDTH 596 0
DWIDTH 15 0
BBX 14 15 1 -3
BITMAP
f87c
f87c
3030
3070
1860
18c0
0dc0
0d80
0780
0700
0700
0600
0c00
ff00
ff00
ENDCHAR
STARTCHAR z
ENCODING 122
SWIDTH 596 0
DWIDTH 15 0
BBX 11 11 2 1
BITMAP
7fe0
7fe0
61c0
6380
0700
0e00
1c00
3860
7060
ffe0
ffe0
ENDCHAR
STARTCHAR braceleft
ENCODING 123
SWIDTH 596 0
DWIDTH 15 0
BBX 7 19 5 -1
BITMAP
0e
1e
38
30
30
30
18
18
38
f0
f0
18
18
38
30
30
30
3e
0e
ENDCHAR
STARTCHAR bar
ENCODING 124
SWIDTH 596 0
DWIDTH 15 0
BBX 2 21 6 -3
BITMAP
c0
c0
c0
c0
c0
c0
c0
c0
c0
c0
c0
c0
c0
c0
c0
c0
c0
c0
c0
c0
c0
ENDCHAR
STARTCHAR braceright
ENCODING 125
SWIDTH 596 0
DWIDTH 15 0
BBX 7 19 3 -1
BITMAP
e0
f0
38
18
18
18
30
30
38
1e
3e
30
30
38
18
18
18
f8
e0
ENDCHAR
STARTCHAR asciitilde
ENCODING 126
SWIDTH 596 0
DWIDTH 15 0
BBX 11 5 2 6
BITMAP
1040
7ee0
ffc0
c7c0
4000
ENDCHAR
STARTCHAR space
ENCODING 160
SWIDTH 596 0
DWIDTH 15 0
BBX 0 0 0 1
BITMAP
ENDCHAR
STARTCHAR Aogonek
ENCODING 161
SWIDTH 596 0
DWIDTH 15 0
BBX 15 19 0 -3
BITMAP
1f80
1f80
03c0
07c0
06c0
0e60
0c60
0c20
1ff0
1ff0
3818
3018
3008
fc7e
fc7e
0018
0032
003c
001c
ENDCHAR
STARTCHAR breve
ENCODING 162
SWIDTH 596 0
DWIDTH 15 0
BBX 9 4 3 14
BITMAP
c180
e380
7f00
3e00
ENDCHAR
STARTCHAR Lslash
ENCODING 163
SWIDTH 596 0
DWIDTH 15 0
BBX 13 15 1 1
BITMAP
ff00
ff00
1800
1800
1880
1bc0
1f00
3c00
f818
7818
1818
1818
1818
fff8
fff8
ENDCHAR
STARTCHAR currency
ENCODING 164
SWIDTH 596 0
DWIDTH 15 0
BBX 13 12 1 2
BITMAP
6030
7ff0
3fe0
18c0
3060
3060
3060
38e0
3fe0
7ff0
6030
2010
ENDCHAR
STARTCHAR Lcaron
ENCODING 165
SWIDTH 596 0
DWIDTH 15 0
BBX 15 16 1 1
BITMAP
001c
ff30
ff00
1800
1800
1800
1800
1800
1800
1818
1818
1818
1818
1818
fff8
fff8
ENDCHAR
STARTCHAR Sacute
ENCODING 166
SWIDTH 596 0
DWIDTH 15 0
BBX 11 19 2 1
BITMAP
0700
0c00
0000
0000
1e60
3fe0
71e0
c0e0
c060
c060
7000
7f80
0fc0
00e0
c060
c060
f0e0
ffc0
cf00
ENDCHAR
STARTCHAR section
ENCODING 167
SWIDTH 596 0
DWIDTH 15 0
BBX 9 17 3 -1
BITMAP
1f80
7f80
6180
6180
7180
7800
fc00
ce00
e300
7180
3980
1f80
0f00
c700
c300
ff00
fe00
ENDCHAR
STARTCHAR dieresis
ENCODING 168
SWIDTH 596 0
DWIDTH 15 0
BBX 5 3 5 15
BITMAP
d8
d8
d8
ENDCHAR
STARTCHAR Scaron
ENCODING 169
SWIDTH 596 0
DWIDTH 15 0
BBX 11 20 2 1
BITMAP
1100
3b80
1f00
0e00
0000
1e60
3fe0
71e0
c0e0
c060
c060
7000
7f80
0fc0
00e0
c060
c060
f0e0
ffc0
cf00
ENDCHAR
STARTCHAR Scedilla
ENCODING 170
SWIDTH 596 0
DWIDTH 15 0
BBX 11 19 2 -3
BITMAP
1e60
3fe0
71e0
c0e0
c060
c060
7000
7f80
0fc0
c0e0
c060
e060
f0e0
ffc0
df80
0600
0780
1f80
0f00
ENDCHAR
STARTCHAR Tcaron
ENCODING 171
SWIDTH 596 0
DWIDTH 15 0
BBX 14 20 1 1
BITMAP
0880
1dc0
0f80
0700
0000
7ff8
7ff8
6318
6318
6318
e31c
e31c
0300
0300
0300
0300
0300
0300
1fe0
1fe0
ENDCHAR
STARTCHAR Zacute
ENCODING 172
SWIDTH 596 0
DWIDTH 15 0
BBX 11 19 2 1
BITMAP
0700
0c00
0000
0000
ffc0
ffc0
c1c0
c180
c300
c700
0600
0c00
1c00
3860
3060
7060
e060
ffe0
ffe0
ENDCHAR
STARTCHAR hyphen
ENCODING 173
SWIDTH 596 0
DWIDTH 15 0
BBX 6 2 4 7
BITMAP
fc
fc
ENDCHAR
STARTCHAR Zcaron
ENCODING 174
SWIDTH 596 0
DWIDTH 15 0
BBX 11 20 2 1
BITMAP
1100
3b80
1f00
0e00
0000
ffc0
ffc0
c1c0
c180
c300
c700
0600
0c00
1c00
3860
3060
7060
e060
ffe0
ffe0
ENDCHAR
STARTCHAR Zdotaccent
ENCODING 175
SWIDTH 596 0
DWIDTH 15 0
BBX 11 19 2 1
BITMAP
0c00
0c00
0000
0000
ffc0
ffc0
c1c0
c180
c300
c700
0600
0c00
1c00
3860
3060
7060
e060
ffe0
ffe0
ENDCHAR
STARTCHAR degree
ENCODING 176
SWIDTH 596 0
DWIDTH 15 0
BBX 7 8 4 9
BITMAP
38
7c
c6
c6
c6
c6
7c
38
ENDCHAR
STARTCHAR aogonek
ENCODING 177
SWIDTH 596 0
DWIDTH 15 0
BBX 13 15 1 -3
BITMAP
1fc0
7fe0
0060
1fe0
7fe0
70e0
c060
c0e0
e1e0
7ff8
3e78
0060
00c8
00f0
0070
ENDCHAR
STARTCHAR ogonek
ENCODING 178
SWIDTH 596 0
DWIDTH 15 0
BBX 5 4 5 -3
BITMAP
70
c0
f8
70
ENDCHAR
STARTCHAR lslash
ENCODING 179
SWIDTH 596 0
DWIDTH 15 0
BBX 11 16 2 1
BITMAP
1c00
fc00
0c00
0c00
0c00
0cc0
0fc0
1f00
3c00
fc00
6c00
0c00
0c00
0c00
ffe0
ffe0
ENDCHAR
STARTCHAR acute
ENCODING 180
SWIDTH 596 0
DWIDTH 15 0
BBX 6 2 5 15
BITMAP
38
60
ENDCHAR
STARTCHAR lcaron
ENCODING 181
SWIDTH 596 0
DWIDTH 15 0
BBX 13 16 2 1
BITMAP
1c70
fcc0
0c00
0c00
0c00
0c00
0c00
0c00
0c00
0c00
0c00
0c00
0c00
0c00
ffe0
ffe0
ENDCHAR
STARTCHAR sacute
ENCODING 182
SWIDTH 596 0
DWIDTH 15 0
BBX 11 16 2 1
BITMAP
0700
0c00
0000
0000
0000
3ec0
ffc0
c0c0
c0c0
7f00
3fc0
01e0
c060
e0e0
ffc0
cf80
ENDCHAR
STARTCHAR caron
ENCODING 183
SWIDTH 596 0
DWIDTH 15 0
BBX 7 3 4 14
BITMAP
ee
7c
38
ENDCHAR
STARTCHAR cedilla
ENCODING 184
SWIDTH 596 0
DWIDTH 15 0
BBX 5 5 6 -3
BITMAP
60
70
78
f8
f0
ENDCHAR
STARTCHAR scaron
ENCODING 185
SWIDTH 596 0
DWIDTH 15 0
BBX 11 16 2 1
BITMAP
3b80
1f00
0e00
0000
0000
3ec0
ffc0
c0c0
c0c0
7f00
3fc0
01e0
c060
e0e0
ffc0
cf80
ENDCHAR
STARTCHAR scedilla
ENCODING 186
SWIDTH 596 0
DWIDTH 15 0
BBX 11 15 2 -3
BITMAP
3ec0
ffc0
c0c0
c0c0
7f00
3fc0
81e0
c060
e0e0
ffc0
cf80
0600
0780
1f80
0f00
ENDCHAR
STARTCHAR tcaron
ENCODING 187
SWIDTH 596 0
DWIDTH 15 0
BBX 12 16 2 1
BITMAP
01c0
3300
3000
3000
3000
ffc0
ffc0
3000
3000
3000
3000
3000
3000
3860
1ff0
0f80
ENDCHAR
STARTCHAR zacute
ENCODING 188
SWIDTH 596 0
DWIDTH 15 0
BBX 11 16 2 1
BITMAP
0700
0c00
0000
0000
0000
7fe0
7fe0
61c0
6380
0700
0e00
1c00
3860
7060
ffe0
ffe0
ENDCHAR
STARTCHAR hungarumlaut
ENCODING 189
SWIDTH 596 0
DWIDTH 15 0
BBX 10 3 3 14
BITMAP
3980
7300
4600
ENDCHAR
STARTCHAR zcaron
ENCODING 190
SWIDTH 596 0
DWIDTH 15 0
BBX 11 16 2 1
BITMAP
3b80
1f00
0e00
0000
0000
7fe0
7fe0
61c0
6380
0700
0e00
1c00
3860
7060
ffe0
ffe0
ENDCHAR
STARTCHAR zdotaccent
ENCODING 191
SWIDTH 596 0
DWIDTH 15 0
BBX 11 16 2 1
BITMAP
0c00
0c00
0000
0000
0000
7fe0
7fe0
61c0
6380
0700
0e00
1c00
3860
7060
ffe0
ffe0
ENDCHAR
STARTCHAR Racute
ENCODING 192
SWIDTH 596 0
DWIDTH 15 0
BBX 14 19 1 1
BITMAP
0380
0600
0000
0000
ffc0
ffe0
3070
3030
3030
3030
30e0
3fe0
3f80
3180
31c0
30e0
3060
fc3c
fc3c
ENDCHAR
STARTCHAR Aacute
ENCODING 193
SWIDTH 596 0
DWIDTH 15 0
BBX 15 19 0 1
BITMAP
01c0
0300
0000
0000
1f80
1f80
03c0
07c0
06c0
0ee0
0c60
0c60
1ff0
1ff0
3838
3018
3018
fc7e
fc7e
ENDCHAR
STARTCHAR Acircumflex
ENCODING 194
SWIDTH 596 0
DWIDTH 15 0
BBX 15 20 0 1
BITMAP
0380
07c0
0ee0
0000
0000
1f80
1f80
03c0
07c0
06c0
0ee0
0c60
0c60
1ff0
1ff0
3838
3018
3018
fc7e
fc7e
ENDCHAR
STARTCHAR Abreve
ENCODING 195
SWIDTH 596 0
DWIDTH 15 0
BBX 15 20 0 1
BITMAP
1830
1c70
0fe0
0380
0000
1f80
1f80
03c0
07c0
06c0
0ee0
0c60
0c60
1ff0
1ff0
3838
3018
3018
fc7e
fc7e
ENDCHAR
STARTCHAR Adieresis
ENCODING 196
SWIDTH 596 0
DWIDTH 15 0
BBX 15 20 0 1
BITMAP
06c0
06c0
06c0
0000
0000
1f80
1f80
03c0
07c0
06c0
0ee0
0c60
0c60
1ff0
1ff0
3838
3018
3018
fc7e
fc7e
ENDCHAR
STARTCHAR Lacute
ENCODING 197
SWIDTH 596 0
DWIDTH 15 0
BBX 13 19 1 1
BITMAP
0e00
1800
0000
0000
ff00
ff00
1800
1800
1800
1800
1800
1800
1818
1818
1818
1818
1818
fff8
fff8
ENDCHAR
STARTCHAR Cacute
ENCODING 198
SWIDTH 596 0
DWIDTH 15 0
BBX 14 19 1 1
BITMAP
0380
0600
0000
0000
0f98
1ff8
3878
7038
6018
c018
c000
c000
c000
c000
6000
700c
383c
1ff0
0fc0
ENDCHAR
STARTCHAR Ccedilla
ENCODING 199
SWIDTH 596 0
DWIDTH 15 0
BBX 14 20 1 -4
BITMAP
0f98
1ff8
3878
7038
6018
c018
c000
c000
c000
c000
6000
700c
383c
1ff0
0fc0
0300
03c0
04c0
07c0
0780
ENDCHAR
STARTCHAR Ccaron
ENCODING 200
SWIDTH 596 0
DWIDTH 15 0
BBX 14 20 1 1
BITMAP
0880
1dc0
0f80
0700
0000
0f98
1ff8
3878
7038
6018
c018
c000
c000
c000
c000
6000
700c
383c
1ff0
0fc0
ENDCHAR
STARTCHAR Eacute
ENCODING 201
SWIDTH 596 0
DWIDTH 15 0
BBX 13 19 1 1
BITMAP
0380
0600
0000
0000
fff8
fff8
3038
3018
3198
3198
3f80
3f80
3180
3198
3018
3018
3018
fff8
fff8
ENDCHAR
STARTCHAR Eogonek
ENCODING 202
SWIDTH 596 0
DWIDTH 15 0
BBX 14 19 1 -3
BITMAP
fff8
fff8
3038
3018
3198
3198
3f80
3f80
3180
3198
3018
3018
3018
fff8
fff8
0060
00c4
00f8
0070
ENDCHAR
STARTCHAR Edieresis
ENCODING 203
SWIDTH 596 0
DWIDTH 15 0
BBX 13 20 1 1
BITMAP
0d80
0d80
0d80
0000
0000
fff8
fff8
3038
3018
3198
3198
3f80
3f80
3180
3198
3018
3018
3018
fff8
fff8
ENDCHAR
STARTCHAR Ecaron
ENCODING 204
SWIDTH 596 0
DWIDTH 15 0
BBX 13 20 1 1
BITMAP
0880
1dc0
0f80
0700
0000
fff8
fff8
3038
3018
3198
3198
3f80
3f80
3180
3198
3018
3018
3018
fff8
fff8
ENDCHAR
STARTCHAR Iacute
ENCODING 205
SWIDTH 596 0
DWIDTH 15 0
BBX 11 19 2 1
BITMAP
0700
0c00
0000
0000
ffe0
ffe0
0600
0600
0600
0600
0600
0600
0600
0600
0600
0600
0600
ffe0
ffe0
ENDCHAR
STARTCHAR Icircumflex
ENCODING 206
SWIDTH 596 0
DWIDTH 15 0
BBX 11 20 2 1
BITMAP
0e00
1f00
3b80
0000
0000
ffe0
ffe0
0600
0600
0600
0600
0600
0600
0600
0600
0600
0600
0600
ffe0
ffe0
ENDCHAR
STARTCHAR Dcaron
ENCODING 207
SWIDTH 596 0
DWIDTH 15 0
BBX 13 20 1 1
BITMAP
0880
1dc0
0f80
0700
0000
ff80
ffe0
30f0
3070
3038
3018
3018
3018
3018
3018
3038
3030
30f0
ffe0
ff80
ENDCHAR
STARTCHAR Eth
ENCODING 208
SWIDTH 596 0
DWIDTH 15 0
BBX 13 15 1 1
BITMAP
ff80
ffe0
30f0
3070
3038
3018
fe18
fe18
3018
3018
3030
3030
30f0
ffe0
ff80
ENDCHAR
STARTCHAR Nacute
ENCODING 209
SWIDTH 596 0
DWIDTH 15 0
BBX 15 19 0 1
BITMAP
01c0
0300
0000
0000
f87e
fc7e
3c18
3e18
3618
3718
3318
3398
3198
31d8
30d8
3078
3078
fe38
fe38
ENDCHAR
STARTCHAR Ncaron
ENCODING 210
SWIDTH 596 0
DWIDTH 15 0
BBX 15 20 0 1
BITMAP
0440
0ee0
07c0
0380
0000
f87e
fc7e
3c18
3e18
3618
3718
3318
3398
3198
31d8
30d8
3078
3078
fe38
fe38
ENDCHAR
STARTCHAR Oacute
ENCODING 211
SWIDTH 596 0
DWIDTH 15 0
BBX 13 19 1 1
BITMAP
0380
0600
0000
0000
0f80
3fe0
38e0
6030
6030
c018
c018
c018
c018
c018
e038
6030
7870
3fe0
0f80
ENDCHAR
STARTCHAR Ocircumflex
ENCODING 212
SWIDTH 596 0
DWIDTH 15 0
BBX 13 20 1 1
BITMAP
0700
0f80
1dc0
0000
0000
0f80
3fe0
38e0
6030
6030
c018
c018
c018
c018
c018
e038
6030
7870
3fe0
0f80
ENDCHAR
STARTCHAR Ohungarumlaut
ENCODING 213
SWIDTH 596 0
DWIDTH 15 0
BBX 13 20 1 1
BITMAP
0e60
1cc0
1180
0000
0000
0f80
3fe0
38e0
6030
6030
c018
c018
c018
c018
c018
e038
6030
7870
3fe0
0f80
ENDCHAR
STARTCHAR Odieresis
ENCODING 214
SWIDTH 596 0
DWIDTH 15 0
BBX 13 20 1 1
BITMAP
0d80
0d80
0d80
0000
0000
0f80
3fe0
38e0
6030
6030
c018
c018
c018
c018
c018
e038
6030
7870
3fe0
0f80
ENDCHAR
STARTCHAR multiply
ENCODING 215
SWIDTH 596 0
DWIDTH 15 0
BBX 10 10 2 4
BITMAP
4080
e180
73c0
3f80
1e00
1e00
3f00
7380
e1c0
4080
ENDCHAR
STARTCHAR Rcaron
ENCODING 216
SWIDTH 596 0
DWIDTH 15 0
BBX 14 20 1 1
BITMAP
0880
1dc0
0f80
0700
0000
ffc0
ffe0
3070
3030
3030
3030
30e0
3fe0
3f80
3180
31c0
30e0
3060
fc3c
fc3c
ENDCHAR
STARTCHAR Uring
ENCODING 217
SWIDTH 596 0
DWIDTH 15 0
BBX 15 21 0 1
BITMAP
0380
07c0
06c0
07c0
0380
0000
fefe
fefe
3018
3018
3018
3018
3018
3018
3018
3018
3018
3018
1830
1ff0
07c0
ENDCHAR
STARTCHAR Uacute
ENCODING 218
SWIDTH 596 0
DWIDTH 15 0
BBX 15 19 0 1
BITMAP
01c0
0300
0000
0000
fefe
fefe
3018
3018
3018
3018
3018
3018
3018
3018
3018
3018
1830
1ff0
07c0
ENDCHAR
STARTCHAR Uhungarumlaut
ENCODING 219
SWIDTH 596 0
DWIDTH 15 0
BBX 15 20 0 1
BITMAP
0730
0e60
08c0
0000
0000
fefe
fefe
3018
3018
3018
3018
3018
3018
3018
3018
3018
3018
1830
1ff0
07c0
ENDCHAR
STARTCHAR Udieresis
ENCODING 220
SWIDTH 596 0
DWIDTH 15 0
BBX 15 20 0 1
BITMAP
06c0
06c0
06c0
0000
0000
fefe
fefe
3018
3018
3018
3018
3018
3018
3018
3018
3018
3018
1830
1ff0
07c0
ENDCHAR
STARTCHAR Yacute
ENCODING 221
SWIDTH 596 0
DWIDTH 15 0
BBX 15 19 0 1
BITMAP
01c0
0300
0000
0000
fc7e
fc7e
3838
1c30
0c70
0e60
07e0
03c0
03c0
0180
0180
0180
0180
0fe0
0fe0
ENDCHAR
STARTCHAR Tcedilla
ENCODING 222
SWIDTH 596 0
DWIDTH 15 0
BBX 13 19 1 -3
BITMAP
fff8
fff8
c318
c318
c318
c318
c318
0300
0300
0300
0300
0300
0300
1fe0
1fe0
0700
0780
0f80
0f80
ENDCHAR
STARTCHAR germandbls
ENCODING 223
SWIDTH 596 0
DWIDTH 15 0
BBX 12 16 1 1
BITMAP
0f00
1f80
38c0
30c0
30c0
31c0
3780
37c0
30e0
3070
3030
3030
3030
3470
f7e0
f3c0
ENDCHAR
STARTCHAR racute
ENCODING 224
SWIDTH 596 0
DWIDTH 15 0
BBX 13 16 2 1
BITMAP
0700
0c00
0000
0000
0000
f9e0
fff0
1e20
1c00
1800
1800
1800
1800
1800
ff80
ff80
ENDCHAR
STARTCHAR aacute
ENCODING 225
SWIDTH 596 0
DWIDTH 15 0
BBX 13 16 1 1
BITMAP
0380
0600
0000
0000
0000
1fc0
7fe0
0060
1fe0
7fe0
70e0
c060
c0e0
e1e0
7ff8
3e78
ENDCHAR
STARTCHAR acircumflex
ENCODING 226
SWIDTH 596 0
DWIDTH 15 0
BBX 13 16 1 1
BITMAP
0700
1fc0
0880
0000
0000
1fc0
7fe0
0060
1fe0
7fe0
70e0
c060
c0e0
e1e0
7ff8
3e78
ENDCHAR
STARTCHAR abreve
ENCODING 227
SWIDTH 596 0
DWIDTH 15 0
BBX 13 17 1 1
BITMAP
3060
38e0
1fc0
0f80
0000
0000
1fc0
7fe0
0060
1fe0
7fe0
70e0
c060
c0e0
e1e0
7ff8
3e78
ENDCHAR
STARTCHAR adieresis
ENCODING 228
SWIDTH 596 0
DWIDTH 15 0
BBX 13 17 1 1
BITMAP
0d80
0d80
0d80
0000
0000
0000
1fc0
7fe0
0060
1fe0
7fe0
70e0
c060
c0e0
e1e0
7ff8
3e78
ENDCHAR
STARTCHAR lacute
ENCODING 229
SWIDTH 596 0
DWIDTH 15 0
BBX 11 21 2 1
BITMAP
0700
0c00
0000
0000
0000
1c00
fc00
0c00
0c00
0c00
0c00
0c00
0c00
0c00
0c00
0c00
0c00
0c00
0c00
ffe0
ffe0
ENDCHAR
STARTCHAR cacute
ENCODING 230
SWIDTH 596 0
DWIDTH 15 0
BBX 12 16 2 1
BITMAP
0700
0c00
0000
0000
0000
1f60
7fe0
70e0
e060
c040
c000
c000
e020
70f0
3fe0
1f80
ENDCHAR
STARTCHAR ccedilla
ENCODING 231
SWIDTH 596 0
DWIDTH 15 0
BBX 12 16 2 -4
BITMAP
1f60
7fe0
70e0
e060
c000
c000
c000
e020
70f0
3fe0
1f80
0600
0780
1180
1f80
0f00
ENDCHAR
STARTCHAR ccaron
ENCODING 232
SWIDTH 596 0
DWIDTH 15 0
BBX 12 16 2 1
BITMAP
3b80
1f00
0e00
0000
0000
1f60
7fe0
70e0
e060
c040
c000
c000
e020
70f0
3fe0
1f80
ENDCHAR
STARTCHAR eacute
ENCODING 233
SWIDTH 596 0
DWIDTH 15 0
BBX 12 16 2 1
BITMAP
0700
0c00
0000
0000
0000
1f80
7fe0
6060
c030
fff0
fff0
c000
e010
7070
3fe0
1f80
ENDCHAR
STARTCHAR eogonek
ENCODING 234
SWIDTH 596 0
DWIDTH 15 0
BBX 12 15 2 -3
BITMAP
1f80
7fc0
e060
c070
fff0
fff0
c000
c020
7070
7ff0
1f80
0e00
0c80
0f00
0700
ENDCHAR
STARTCHAR edieresis
ENCODING 235
SWIDTH 596 0
DWIDTH 15 0
BBX 12 17 2 1
BITMAP
1b00
1b00
1b00
0000
0000
0000
1f80
7fe0
6060
c030
fff0
fff0
c000
e010
7070
3fe0
1f80
ENDCHAR
STARTCHAR ecaron
ENCODING 236
SWIDTH 596 0
DWIDTH 15 0
BBX 12 16 2 1
BITMAP
3b80
1f00
0e00
0000
0000
1f80
7fe0
6060
c030
fff0
fff0
c000
e010
7070
3fe0
1f80
ENDCHAR
STARTCHAR iacute
ENCODING 237
SWIDTH 596 0
DWIDTH 15 0
BBX 11 16 2 1
BITMAP
0700
0c00
0000
0000
0000
7e00
7e00
0600
0600
0600
0600
0600
0600
0600
ffe0
ffe0
ENDCHAR
STARTCHAR icircumflex
ENCODING 238
SWIDTH 596 0
DWIDTH 15 0
BBX 11 16 2 1
BITMAP
0e00
3f80
1100
0000
0000
7e00
7e00
0600
0600
0600
0600
0600
0600
0600
ffe0
ffe0
ENDCHAR
STARTCHAR dcaron
ENCODING 239
SWIDTH 596 0
DWIDTH 15 0
BBX 18 16 1 1
BITMAP
03f380
03f600
003000
003000
003000
1fb000
3ff000
70f000
e07000
c07000
c03000
c07000
e07000
70f000
3ffc00
1f3c00
ENDCHAR
STARTCHAR dbar
ENCODING 240
SWIDTH 596 0
DWIDTH 15 0
BBX 14 16 1 1
BITMAP
03f0
03f0
0030
0ffc
0ffc
0f30
3ff0
70f0
e070
c070
c030
c070
e070
70f0
3ffc
1f3c
ENDCHAR
STARTCHAR nacute
ENCODING 241
SWIDTH 596 0
DWIDTH 15 0
BBX 14 16 1 1
BITMAP
0380
0600
0000
0000
0000
f780
ffc0
3860
3060
3060
3060
3060
3060
3060
fdfc
fdfc
ENDCHAR
STARTCHAR ncaron
ENCODING 242
SWIDTH 596 0
DWIDTH 15 0
BBX 14 16 1 1
BITMAP
1dc0
0f80
0700
0000
0000
f780
ffc0
3860
3060
3060
3060
3060
3060
3060
fdfc
fdfc
ENDCHAR
STARTCHAR oacute
ENCODING 243
SWIDTH 596 0
DWIDTH 15 0
BBX 13 16 1 1
BITMAP
0380
0600
0000
0000
0000
1fc0
3fe0
7070
e038
c018
c018
c018
e038
7070
3fe0
0f80
ENDCHAR
STARTCHAR ocircumflex
ENCODING 244
SWIDTH 596 0
DWIDTH 15 0
BBX 13 16 1 1
BITMAP
0700
1fc0
0880
0000
0000
1fc0
3fe0
7070
e038
c018
c018
c018
e038
7070
3fe0
0f80
ENDCHAR
STARTCHAR ohungarumlaut
ENCODING 245
SWIDTH 596 0
DWIDTH 15 0
BBX 13 16 1 1
BITMAP
0e60
1cc0
1180
0000
0000
1fc0
3fe0
7070
e038
c018
c018
c018
e038
7070
3fe0
0f80
ENDCHAR
STARTCHAR odieresis
ENCODING 246
SWIDTH 596 0
DWIDTH 15 0
BBX 13 17 1 1
BITMAP
0d80
0d80
0d80
0000
0000
0000
1fc0
3fe0
7070
e038
c018
c018
c018
e038
7070
3fe0
0f80
ENDCHAR
STARTCHAR divide
ENCODING 247
SWIDTH 596 0
DWIDTH 15 0
BBX 13 12 1 2
BITMAP
0e00
0e00
0e00
0000
fff8
fff8
0000
0000
0000
0e00
0e00
0e00
ENDCHAR
STARTCHAR rcaron
ENCODING 248
SWIDTH 596 0
DWIDTH 15 0
BBX 13 16 2 1
BITMAP
3b80
1f00
0e00
0000
0000
f9e0
fff0
1e20
1c00
1800
1800
1800
1800
1800
ff80
ff80
ENDCHAR
STARTCHAR uring
ENCODING 249
SWIDTH 596 0
DWIDTH 15 0
BBX 13 18 1 1
BITMAP
0700
0f80
0d80
0f80
0700
0000
0000
f1e0
f1e0
3060
3060
3060
3060
3060
3060
30e0
1ff8
0f78
ENDCHAR
STARTCHAR uacute
ENCODING 250
SWIDTH 596 0
DWIDTH 15 0
BBX 13 16 1 1
BITMAP
0380
0600
0000
0000
0000
f1e0
f1e0
3060
3060
3060
3060
3060
3060
30e0
1ff8
0f78
ENDCHAR
STARTCHAR uhungarumlaut
ENCODING 251
SWIDTH 596 0
DWIDTH 15 0
BBX 13 16 1 1
BITMAP
0e60
1cc0
1180
0000
0000
f1e0
f1e0
3060
3060
3060
3060
3060
3060
30e0
1ff8
0f78
ENDCHAR
STARTCHAR udieresis
ENCODING 252
SWIDTH 596 0
DWIDTH 15 0
BBX 13 17 1 1
BITMAP
0d80
0d80
0d80
0000
0000
0000
f1e0
f1e0
3060
3060
3060
3060
3060
3060
30e0
1ff8
0f78
ENDCHAR
STARTCHAR yacute
ENCODING 253
SWIDTH 596 0
DWIDTH 15 0
BBX 14 20 1 -3
BITMAP
0380
0600
0000
0000
0000
f87c
f87c
3030
3070
1860
18c0
0dc0
0d80
0780
0700
0700
0600
0c00
ff00
ff00
ENDCHAR
STARTCHAR tcedilla
ENCODING 254
SWIDTH 596 0
DWIDTH 15 0
BBX 12 19 2 -3
BITMAP
3000
3000
3000
3000
ffc0
ffc0
3000
3000
3000
3000
3000
3000
3060
1ff0
0fc0
0600
0780
1f80
0f00
ENDCHAR
STARTCHAR dotaccent
ENCODING 255
SWIDTH 596 0
DWIDTH 15 0
BBX 2 2 6 15
BITMAP
c0
c0
ENDCHAR
ENDFONT
